# xmcd
#
# Track frame offsets:
#	150
#	13508
#	28768
#	39566
#	52657
#	60664
#	77237
#	89212
#	104348
#	121279
#	133600
#	142112
#
# Disc length: 2155 seconds
#
# Revision: 1
# Processed by: cddbd v1.5.1PL0 Copyright (c) Steve Scherf et al.
# Submitted via: audiograbber 1.83.01
#
DISCID=a308690c
DTITLE=Foxfire - movin`
DYEAR=1998
DGENRE=
TTITLE0=Katy Daley
TTITLE1=Jenny
TTITLE2=Rawhide
TTITLE3=Movin`
TTITLE4=Happy (Yodeling) Cowboy
TTITLE5=Lost River
TTITLE6=Runnin` Down The Mountain
TTITLE7=Walk In The Irish Rain
TTITLE8=I Wonder Where You Are Tonight
TTITLE9=Nothin`s Right
TTITLE10=Shut The Door
TTITLE11=House Of The Rising Sun
EXTD=Since 1985, Foxfire has played from Oregon to New-York - always with a fre
EXTD=sh approach to bluegrass with unusual twists.
EXTT0=
EXTT1=
EXTT2=
EXTT3=
EXTT4=
EXTT5=
EXTT6=
EXTT7=
EXTT8=
EXTT9=
EXTT10=
EXTT11=
PLAYORDER=
